<svg xmlns="http://www.w3.org/2000/svg" viewBox="0 0 256 256" role="img" aria-label="Ollama">
  <path fill="#0a0a0a" d="M86 36c-16 0-26 16-26 40 0 6 1 12 3 17C49 104 40 124 40 148c0 30 18 56 50 64-5 6-8 14-8 22h132c0-8-3-16-8-22 32-8 50-34 50-64 0-24-9-44-23-55 2-5 3-11 3-17 0-24-10-40-26-40-13 0-22 11-25 27-6-2-12-3-19-3s-13 1-19 3c-3-16-12-27-25-27Zm42 92c26 0 46 14 46 34s-20 30-46 30-46-10-46-30 20-34 46-34Zm-22 30a10 10 0 1 0 0 20 10 10 0 0 0 0-20Zm44 0a10 10 0 1 0 0 20 10 10 0 0 0 0-20Zm-22 22c8 0 14 4 14 8s-6 6-14 6-14-2-14-6 6-8 14-8Z"/>
</svg>
