<svg xmlns="http://www.w3.org/2000/svg" viewBox="0 0 256 256" role="img" aria-label="Prometheus">
  <path fill="#e6522c" d="M128 8C61.8 8 8 61.8 8 128s53.8 120 120 120 120-53.8 120-120S194.2 8 128 8Zm0 224c-22.6 0-41-16.1-41-36h82c0 19.9-18.4 36-41 36Zm67.7-48H60.3v-22.4h135.4V184Zm-.5-34.1H60.7c-.4-.5-.9-1-1.3-1.6-13.9-16.9-17.2-25.7-20.4-34.7-.1-.3 17 3.5 29.1 6.2 0 0 6.2 1.4 15.3 3.1-8.7-10.2-13.9-23.2-13.9-36.5 0-29.2 22.4-54.8 14.3-75.4 7.9.6 16.4 16.7 17 41.9 8.4-11.6 11.9-32.8 11.9-45.8 0-13.5 8.9-29.2 17.8-29.8-7.9 13.1 2.1 24.3 10.9 52.1 3.3 10.4 2.9 28 5.4 39.2.8-23.4 4.9-57.5 19.8-69.3-6.6 14.9.9 33.5 6 42.4 8.2 14.4 13.2 25.3 13.2 45.9 0 13.8-5.1 26.8-13.7 37 9.7-1.8 16.4-3.5 16.4-3.5l31.2-6.1s-4.5 18.6-22 33.2Z"/>
</svg>
