<svg width="320" height="320" viewBox="30 28 300 292" fill="none" xmlns="http://www.w3.org/2000/svg" role="img" aria-label="CortexOS">
  <defs>
    <linearGradient id="cxm-brand" x1="100" y1="56" x2="282" y2="258" gradientUnits="userSpaceOnUse">
      <stop offset="0" stop-color="#22D3EE"/>
      <stop offset="0.52" stop-color="#3B82F6"/>
      <stop offset="1" stop-color="#8B5CF6"/>
    </linearGradient>
    <radialGradient id="cxm-glow" cx="0" cy="0" r="1" gradientUnits="userSpaceOnUse" gradientTransform="translate(180 160) rotate(90) scale(132)">
      <stop offset="0" stop-color="#22D3EE" stop-opacity="0.30"/>
      <stop offset="0.55" stop-color="#3B82F6" stop-opacity="0.13"/>
      <stop offset="1" stop-color="#0F172A" stop-opacity="0"/>
    </radialGradient>
    <filter id="cxm-shadow" x="34" y="20" width="300" height="280" filterUnits="userSpaceOnUse" color-interpolation-filters="sRGB">
      <feDropShadow dx="0" dy="0" stdDeviation="7" flood-color="#22D3EE" flood-opacity="0.26"/>
      <feDropShadow dx="0" dy="0" stdDeviation="14" flood-color="#6366F1" flood-opacity="0.15"/>
    </filter>
  </defs>
  <circle cx="180" cy="160" r="132" fill="url(#cxm-glow)"/>
  <g filter="url(#cxm-shadow)">
    <path d="M180 54C238.5 54 286 101.5 286 160C286 218.5 238.5 266 180 266C121.5 266 74 218.5 74 160C74 101.5 121.5 54 180 54Z" stroke="url(#cxm-brand)" stroke-width="3" stroke-dasharray="1 13" stroke-linecap="round" opacity="0.72"/>
    <path d="M180 80V111" stroke="#38BDF8" stroke-width="2.4" stroke-linecap="round" opacity="0.75"/>
    <path d="M180 209V240" stroke="#8B5CF6" stroke-width="2.4" stroke-linecap="round" opacity="0.75"/>
    <path d="M100 160H132" stroke="#22D3EE" stroke-width="2.4" stroke-linecap="round" opacity="0.75"/>
    <path d="M228 160H260" stroke="#60A5FA" stroke-width="2.4" stroke-linecap="round" opacity="0.75"/>
    <path d="M126 106L149 129" stroke="#38BDF8" stroke-width="2.1" stroke-linecap="round" opacity="0.55"/>
    <path d="M234 106L211 129" stroke="#60A5FA" stroke-width="2.1" stroke-linecap="round" opacity="0.55"/>
    <path d="M126 214L149 191" stroke="#8B5CF6" stroke-width="2.1" stroke-linecap="round" opacity="0.55"/>
    <path d="M234 214L211 191" stroke="#7DD3FC" stroke-width="2.1" stroke-linecap="round" opacity="0.55"/>
    <circle cx="180" cy="78" r="9" fill="#071426" stroke="#22D3EE" stroke-width="3"/>
    <circle cx="180" cy="242" r="9" fill="#071426" stroke="#8B5CF6" stroke-width="3"/>
    <circle cx="98" cy="160" r="9" fill="#071426" stroke="#22D3EE" stroke-width="3"/>
    <circle cx="262" cy="160" r="9" fill="#071426" stroke="#60A5FA" stroke-width="3"/>
    <circle cx="124" cy="104" r="6" fill="#22C55E"/>
    <circle cx="236" cy="104" r="6" fill="#22C55E"/>
    <circle cx="124" cy="216" r="6" fill="#22C55E"/>
    <circle cx="236" cy="216" r="6" fill="#22C55E"/>
    <path d="M180 96L235.4 128V192L180 224L124.6 192V128L180 96Z" fill="#08111F" stroke="url(#cxm-brand)" stroke-width="4" stroke-linejoin="round"/>
    <path d="M180 96V160M124.6 128L180 160M235.4 128L180 160M180 224V160M124.6 192L180 160M235.4 192L180 160" stroke="#1E40AF" stroke-width="2" opacity="0.72"/>
    <rect x="149" y="134" width="62" height="52" rx="10" fill="#0B172A" stroke="#334155" stroke-width="2"/>
    <circle cx="162" cy="148" r="3" fill="#22C55E"/>
    <circle cx="174" cy="148" r="3" fill="#38BDF8"/>
    <circle cx="186" cy="148" r="3" fill="#8B5CF6"/>
    <path d="M161 165L171 172L161 179" stroke="#67E8F9" stroke-width="3" stroke-linecap="round" stroke-linejoin="round"/>
    <path d="M181 178H199" stroke="#A78BFA" stroke-width="3" stroke-linecap="round"/>
    <circle cx="149" cy="128" r="4" fill="#67E8F9"/>
    <circle cx="211" cy="128" r="4" fill="#A78BFA"/>
    <circle cx="149" cy="192" r="4" fill="#A78BFA"/>
    <circle cx="211" cy="192" r="4" fill="#67E8F9"/>
    <circle cx="180" cy="160" r="4.8" fill="#F8FAFC"/>
    <path d="M149 128L180 160L211 128M149 192L180 160L211 192" stroke="#38BDF8" stroke-width="1.5" opacity="0.58"/>
  </g>
</svg>
